# xmcd CD database file
# Copyright (C) 1997 Ti Kan
# 
# Track frame offsets:
#     150
#     17007
#     44962
#     72965
# 
# Disc length: 1374 seconds
# 
# Revision: 1
# Processed by: cddbd v1.4b41PL1 Copyright (c) Steve Scherf et al.
# Submitted via: DiscPlay 4.0.4
# 
DISCID=35055c04
DTITLE=The Outhere Brothers - Let Me Hear You Say "Ole Ole"
DYEAR=1900
DGENRE=
TTITLE0=Let Me Hear You Say Ole Ole
TTITLE1=Let Me Hear You Say Ole Ole (OHB Radio Mix)
TTITLE2=Let Me Hear You Say Ole Ole (Phat And Phunky 12 Mix) Megamix
TTITLE3=
EXTD=
EXTT0=
EXTT1=
EXTT2=
EXTT3=
PLAYORDER=
